<?xml version="1.0" standalone="no"?>
<!DOCTYPE svg PUBLIC "-//W3C//DTD SVG 20010904//EN"
 "http://www.w3.org/TR/2001/REC-SVG-20010904/DTD/svg10.dtd">
<svg version="1.0" xmlns="http://www.w3.org/2000/svg"
 width="180.000000pt" height="180.000000pt" viewBox="0 0 180.000000 180.000000"
 preserveAspectRatio="xMidYMid meet">
<metadata>
Created by potrace 1.14, written by Peter Selinger 2001-2017
</metadata>
<g transform="translate(0.000000,180.000000) scale(0.100000,-0.100000)"
fill="#000000" stroke="none">
<path d="M390 1789 c-180 -26 -310 -135 -363 -303 -22 -70 -22 -80 -22 -586 0
-506 0 -516 22 -586 54 -170 178 -273 365 -304 83 -13 933 -13 1016 0 187 31
311 134 365 304 22 70 22 80 22 586 0 506 0 516 -22 586 -54 172 -182 277
-371 304 -80 12 -933 11 -1012 -1z m563 -479 c21 0 27 -3 19 -8 -9 -6 0 -21
34 -55 26 -26 51 -47 56 -47 4 0 38 -13 73 -29 63 -29 65 -29 65 -9 0 17 2 19
16 7 36 -30 105 -198 103 -254 0 -15 -4 -12 -16 13 -9 17 -20 32 -24 32 -4 0
-19 -21 -34 -47 -43 -74 -53 -83 -82 -72 -13 5 -30 9 -36 8 -7 0 4 -6 23 -13
l35 -13 3 -81 c3 -88 9 -95 51 -65 l24 16 -19 -32 c-24 -41 -83 -94 -149 -132
l-50 -29 -5 23 c-4 14 -15 23 -30 25 -87 10 -132 25 -140 45 l-9 22 0 -22 c-1
-22 -8 -25 -104 -49 -19 -4 -26 -11 -23 -21 4 -10 -7 -7 -35 9 -54 30 -130 97
-127 112 1 6 -4 40 -11 75 -11 48 -12 68 -3 82 10 15 9 17 -3 13 -9 -4 -24 14
-45 56 -30 60 -31 64 -19 114 18 78 43 118 96 154 27 17 51 32 55 32 3 0 35
30 70 66 61 63 67 67 124 74 32 4 65 6 72 4 8 -2 28 -4 45 -4z"/>
<path d="M786 1080 c-27 -5 -53 -15 -57 -22 -16 -24 -47 -113 -54 -155 -6 -41
-6 -42 46 -83 29 -23 69 -50 90 -61 l37 -19 59 39 c32 22 71 53 86 69 l29 30
-16 55 c-9 30 -26 77 -39 103 l-22 49 -55 2 c-30 1 -77 -3 -104 -7z"/>
<path d="M852 660 c0 -14 2 -19 5 -12 2 6 2 18 0 25 -3 6 -5 1 -5 -13z"/>
</g>
</svg>
