<svg width="48" height="48" viewBox="0 0 48 48" fill="none" xmlns="http://www.w3.org/2000/svg">
<g id="icon-broudcasting">
<g id="broudcasting">
<path d="M9.45366 36.5499C10.079 35.9824 10.1782 35.0162 9.75108 34.276C8.13814 31.4807 7.19242 28.1228 7.19242 24.4796C7.19242 20.8523 8.1382 17.4899 9.75286 14.687C10.1801 13.9453 10.0803 12.9778 9.454 12.4094C8.74781 11.7686 7.66164 11.887 7.16835 12.7161C5.16316 16.0864 4 20.1362 4 24.4796C4 28.8079 5.16394 32.864 7.17216 36.243C7.66425 37.071 8.74865 37.1897 9.45366 36.5499Z" fill="#FFCE06"/>
<path d="M14.2545 30.1993C14.6439 30.962 14.5475 31.9265 13.922 32.4942C13.216 33.135 12.1275 33.0178 11.6626 32.1713C10.4265 29.9209 9.71923 27.2777 9.71923 24.4791C9.71923 21.6671 10.4255 19.0292 11.6585 16.7869C12.1247 15.939 13.2151 15.8224 13.9225 16.4644C14.549 17.033 14.6464 17.9988 14.2568 18.763C13.4045 20.4348 12.9116 22.3859 12.9116 24.4791C12.9116 26.586 13.4041 28.5341 14.2545 30.1993Z" fill="#FFCE06"/>
<path d="M30.3742 24.5204C30.3742 28.1908 27.5156 31.1663 23.9893 31.1663C20.4631 31.1663 17.6045 28.1908 17.6045 24.5204C17.6045 20.85 20.4631 17.8745 23.9893 17.8745C27.5156 17.8745 30.3742 20.85 30.3742 24.5204Z" fill="#FFCE06"/>
<path d="M38.2489 34.3176C37.8218 35.0578 37.921 36.024 38.5463 36.5915C39.2513 37.2313 40.3357 37.1125 40.8278 36.2846C42.8361 32.9056 44 28.8494 44 24.5211C44 20.1778 42.8368 16.128 40.8316 12.7576C40.3384 11.9285 39.2522 11.8101 38.546 12.451C37.9197 13.0194 37.8199 13.9868 38.2471 14.7286C39.8618 17.5315 40.8076 20.8939 40.8076 24.5211C40.8076 28.1644 39.8619 31.5223 38.2489 34.3176Z" fill="#FFCE06"/>
<path d="M34.078 32.5358C33.4525 31.9681 33.3561 31.0035 33.7456 30.2408C34.5959 28.5757 35.0884 26.6276 35.0884 24.5207C35.0884 22.4275 34.5955 20.4764 33.7432 18.8046C33.3536 18.0404 33.451 17.0746 34.0775 16.506C34.7849 15.864 35.8753 15.9806 36.3415 16.8285C37.5745 19.0707 38.2808 21.7086 38.2808 24.5207C38.2808 27.3193 37.5735 29.9624 36.3374 32.2129C35.8725 33.0593 34.784 33.1765 34.078 32.5358Z" fill="#FFCE06"/>
</g>
</g>
</svg>
