<svg width="48" height="48" viewBox="0 0 48 48" fill="none" xmlns="http://www.w3.org/2000/svg">
<path fill-rule="evenodd" clip-rule="evenodd" d="M37.1401 8.877C36.0922 7.07565 34.1207 6 31.8642 6C31.3638 6.00101 30.8647 6.05226 30.3745 6.15298C28.0129 6.63105 25.2392 8.4104 24 11.8716C22.757 8.4104 19.9843 6.63487 17.6245 6.15298C17.1344 6.05221 16.6353 6.00096 16.1349 6C13.8842 6 11.9069 7.07565 10.859 8.877C9.6332 10.9853 10.116 12.7101 10.7366 13.7848C11.1332 14.4715 11.6682 15.0444 12.2541 15.4924H8.83481C8.34866 15.4939 7.88284 15.6877 7.53908 16.0315C7.19531 16.3753 7.00151 16.8411 7 17.3272V20.5494C7.00151 21.0355 7.19531 21.5014 7.53908 21.8451C7.88284 22.1889 8.34866 22.3827 8.83481 22.3842H39.1652C39.6513 22.3827 40.1172 22.1889 40.4609 21.8451C40.8047 21.5014 40.9985 21.0355 41 20.5494V17.3272C40.9985 16.8411 40.8047 16.3753 40.4609 16.0315C40.1172 15.6877 39.6513 15.4939 39.1652 15.4924H35.7452C36.3312 15.0444 36.8665 14.4715 37.2635 13.7848C37.883 12.7101 38.3668 10.9853 37.1401 8.877ZM30.866 8.38459C31.2004 8.31541 31.5409 8.27986 31.8824 8.27846C33.2783 8.27846 34.4419 8.90377 35.0758 9.9928C35.639 10.9614 35.6782 11.8391 35.1953 12.6747C34.6064 13.694 33.4189 14.3183 32.8232 14.3594C31.8068 14.4312 29.3811 14.4761 25.7975 14.4914C26.289 10.6592 28.7998 8.80624 30.866 8.38459ZM15.1768 14.3594C14.5802 14.3174 13.3927 13.6902 12.8047 12.6747C12.3218 11.8391 12.361 10.9614 12.928 9.9928C13.5619 8.90377 14.7255 8.27846 16.1215 8.27846C16.462 8.28005 16.8015 8.3156 17.135 8.38459C19.2031 8.80624 21.712 10.6592 22.2025 14.4914C18.616 14.4761 16.1923 14.4312 15.1768 14.3594ZM39.3373 24.5766H8.60342V25.4754V38.9444C8.60342 41.0154 9.55955 41.961 11.6382 41.9639H14.0151H32.8585H36.3006C38.3831 41.9639 39.3344 41.0154 39.3363 38.9444V25.4754L39.3373 24.5766Z" fill="#FFCE06"/>
</svg>
