<svg width="48" height="48" viewBox="0 0 48 48" fill="none" xmlns="http://www.w3.org/2000/svg">
<g id="icon-user">
<path id="user" fill-rule="evenodd" clip-rule="evenodd" d="M31.4385 19.9056C32.4205 18.4349 32.9444 16.706 32.9438 14.9376C32.943 12.5669 32.0007 10.2936 30.3241 8.61758C28.6475 6.94154 26.3738 6 24.0032 6C22.2347 6 20.506 6.52443 19.0357 7.50698C17.5654 8.48952 16.4194 9.88603 15.7428 11.5199C15.0662 13.1538 14.8893 14.9516 15.2345 16.686C15.5798 18.4204 16.4316 20.0134 17.6822 21.2637C18.9329 22.5139 20.5263 23.3652 22.2608 23.7098C23.9953 24.0545 25.793 23.877 27.4267 23.1998C29.0603 22.5227 30.4564 21.3763 31.4385 19.9056ZM39.6899 36.6872C40.7555 39.0653 38.9373 41.7535 36.3334 41.7535H11.6669C9.05997 41.7535 7.24475 39.0653 8.3104 36.6872C9.6558 33.6484 11.8547 31.0658 14.6399 29.2529C17.4251 27.44 20.6769 26.475 24.0001 26.475C27.3234 26.475 30.5751 27.44 33.3604 29.2529C36.1456 31.0658 38.3445 33.6484 39.6899 36.6872Z" fill="#FFCE06"/>
</g>
</svg>
