<svg width="254" height="24" viewBox="0 0 254 24" fill="none" xmlns="http://www.w3.org/2000/svg">
<g id="logo">
<path id="Vector" fill-rule="evenodd" clip-rule="evenodd" d="M129.793 0.0252227L116.152 23.8738H106.66L105.161 11.2555L97.9725 23.8738H88.4944L85.3582 0.0252227H94.0869L95.766 13.6151L103.565 0.0252227H111.697L113.196 13.9054L121.106 0.11356L129.793 0.0252227ZM132.305 0.0252227H141.144L135.899 23.8738H127.059L132.305 0.0252227ZM171.271 0.0252227L166.026 23.8738H158.754L151.219 12.7697L148.791 23.8738H140.173L145.418 0.0252227H152.69L160.211 11.1293L162.654 0.0252227H171.271ZM201.399 0.0252227L196.153 23.8738H188.882L181.346 12.7697L178.918 23.8738H170.3L175.546 0.0252227H182.803L190.339 11.1293L192.781 0.0252227H201.399ZM213.014 6.08199L212.403 8.85804H223.505L222.228 14.6498H211.127L210.447 17.7792H223.602L222.214 23.8486H200.413L205.659 0H226.988L225.6 6.05677L213.014 6.08199ZM253.549 7.86118C253.598 9.84118 252.946 11.7832 251.689 13.4006C250.383 15.0283 248.563 16.2562 246.472 16.9212L250.857 23.8738H241.67L237.965 17.8801H235.786L234.482 23.8738H225.642L230.888 0.0252227H242.655C245.517 -0.136011 248.354 0.588996 250.704 2.08201C251.648 2.77181 252.4 3.65505 252.897 4.65951C253.393 5.66397 253.622 6.7611 253.563 7.86118H253.549ZM244.598 8.64351C244.598 7.02837 243.502 6.22082 241.295 6.22082H238.34L237.105 11.8107H240.74C241.769 11.8628 242.783 11.5661 243.585 10.9779C243.928 10.6777 244.197 10.3139 244.371 9.91108C244.546 9.50826 244.624 9.07593 244.598 8.64351Z" fill="white"/>
<path id="Vector_2" fill-rule="evenodd" clip-rule="evenodd" d="M23.8687 11.634C24.9035 12.0256 25.8008 12.667 26.4637 13.4889C27.0892 14.3149 27.4099 15.3002 27.3796 16.3027C27.4379 17.446 27.1489 18.5818 26.5443 19.5856C25.9397 20.5895 25.0428 21.4226 23.9519 21.9936C21.2587 23.3548 18.2048 24.0141 15.1261 23.899H0L5.24555 0.0503306H19.1227C21.5441 -0.0806896 23.9551 0.432325 26.0613 1.52669C26.8273 1.98116 27.451 2.60815 27.8716 3.34665C28.2923 4.08516 28.4957 4.91007 28.462 5.7412C28.4851 7.00598 28.0512 8.24274 27.2269 9.26172C26.3373 10.3214 25.1478 11.1414 23.7854 11.634H23.8687ZM12.6976 5.66549L11.9066 9.21123H16.4583C18.415 9.21123 19.3864 8.51723 19.3864 7.12922C19.3952 6.91732 19.3451 6.7068 19.2408 6.51713C19.1365 6.32747 18.9814 6.16474 18.7896 6.04403C18.2658 5.76362 17.6618 5.63183 17.055 5.66549H12.6976ZM15.6256 18.2838C16.4185 18.322 17.2018 18.1127 17.846 17.6907C18.1192 17.5037 18.3379 17.2588 18.483 16.9772C18.6281 16.6957 18.6953 16.3862 18.6786 16.0756C18.6909 15.8499 18.64 15.625 18.5308 15.422C18.4216 15.219 18.2576 15.0445 18.0541 14.9147C17.5995 14.6261 17.054 14.48 16.4999 14.4983H10.8103L9.97766 18.2838H15.6256ZM41.5481 6.11973L40.9514 8.921H52.0531L50.7764 14.7128H39.6747L39.0086 17.8421H52.1503L50.7625 23.9116H28.9477L34.1932 0.0629612H55.5085L54.1208 6.11973H41.5481ZM63.7515 6.29641H56.0775L57.4652 0.0629612H81.6808L80.2931 6.33426H72.619L68.7473 23.9999H59.9076L63.7654 6.33426L63.7515 6.29641Z" fill="#FFCE06"/>
</g>
</svg>
